<mxfile host="app.diagrams.net" modified="2020-03-31T09:26:52.979Z" agent="5.0 (Windows NT 10.0; Win64; x64) AppleWebKit/537.36 (KHTML, like Gecko) Chrome/80.0.3987.149 Safari/537.36" etag="aDqEAx98mCoc7hGkFiPO" version="12.9.5" type="github">
  <diagram id="_cVDuks62UaKVImhQFzd" name="Page-1">
    <mxGraphModel dx="2249" dy="1931" grid="1" gridSize="10" guides="1" tooltips="1" connect="1" arrows="1" fold="1" page="1" pageScale="1" pageWidth="827" pageHeight="1169" math="0" shadow="0">
      <root>
        <mxCell id="0" />
        <mxCell id="1" parent="0" />
        <mxCell id="PKBHu8Fdax7sOy9F1GHR-1" value="" style="rounded=1;whiteSpace=wrap;html=1;" parent="1" vertex="1">
          <mxGeometry x="-40" y="530" width="170" height="210" as="geometry" />
        </mxCell>
        <mxCell id="PKBHu8Fdax7sOy9F1GHR-2" value="" style="rounded=1;whiteSpace=wrap;html=1;" parent="1" vertex="1">
          <mxGeometry x="200" y="10" width="210" height="250" as="geometry" />
        </mxCell>
        <mxCell id="PKBHu8Fdax7sOy9F1GHR-3" value="" style="rounded=1;whiteSpace=wrap;html=1;" parent="1" vertex="1">
          <mxGeometry x="195" y="330" width="160" height="240" as="geometry" />
        </mxCell>
        <mxCell id="PKBHu8Fdax7sOy9F1GHR-4" value="" style="rounded=1;whiteSpace=wrap;html=1;" parent="1" vertex="1">
          <mxGeometry x="600" y="340" width="160" height="290" as="geometry" />
        </mxCell>
        <mxCell id="PKBHu8Fdax7sOy9F1GHR-5" value="PRODUIT" style="text;html=1;strokeColor=none;fillColor=none;align=center;verticalAlign=middle;whiteSpace=wrap;rounded=0;fontStyle=1" parent="1" vertex="1">
          <mxGeometry x="285" y="20" width="40" height="20" as="geometry" />
        </mxCell>
        <mxCell id="PKBHu8Fdax7sOy9F1GHR-6" value="CLIENT" style="text;html=1;strokeColor=none;fillColor=none;align=center;verticalAlign=middle;whiteSpace=wrap;rounded=0;fontStyle=1" parent="1" vertex="1">
          <mxGeometry x="660" y="350" width="40" height="30" as="geometry" />
        </mxCell>
        <mxCell id="PKBHu8Fdax7sOy9F1GHR-8" value="FOURNISSEUR" style="text;html=1;strokeColor=none;fillColor=none;align=center;verticalAlign=middle;whiteSpace=wrap;rounded=0;fontStyle=1" parent="1" vertex="1">
          <mxGeometry x="25" y="540" width="40" height="20" as="geometry" />
        </mxCell>
        <mxCell id="PKBHu8Fdax7sOy9F1GHR-11" value="UTILISATEUR" style="text;html=1;strokeColor=none;fillColor=none;align=center;verticalAlign=middle;whiteSpace=wrap;rounded=0;fontStyle=1" parent="1" vertex="1">
          <mxGeometry x="250" y="340" width="40" height="20" as="geometry" />
        </mxCell>
        <mxCell id="7HdCGKZV9hbTOzj91E-3-1" value="IdUtilisateur" style="text;html=1;strokeColor=none;fillColor=none;align=center;verticalAlign=middle;whiteSpace=wrap;rounded=0;fontStyle=4" vertex="1" parent="1">
          <mxGeometry x="250" y="370" width="40" height="20" as="geometry" />
        </mxCell>
        <mxCell id="7HdCGKZV9hbTOzj91E-3-6" value="IdClient" style="text;html=1;strokeColor=none;fillColor=none;align=center;verticalAlign=middle;whiteSpace=wrap;rounded=0;fontStyle=4" vertex="1" parent="1">
          <mxGeometry x="660" y="380" width="40" height="20" as="geometry" />
        </mxCell>
        <mxCell id="7HdCGKZV9hbTOzj91E-3-7" value="IdFournisseur" style="text;html=1;strokeColor=none;fillColor=none;align=center;verticalAlign=middle;whiteSpace=wrap;rounded=0;fontStyle=4" vertex="1" parent="1">
          <mxGeometry x="25" y="570" width="40" height="20" as="geometry" />
        </mxCell>
        <mxCell id="7HdCGKZV9hbTOzj91E-3-8" value="IdProduit" style="text;html=1;strokeColor=none;fillColor=none;align=center;verticalAlign=middle;whiteSpace=wrap;rounded=0;fontStyle=4" vertex="1" parent="1">
          <mxGeometry x="285" y="46" width="40" height="20" as="geometry" />
        </mxCell>
        <mxCell id="7HdCGKZV9hbTOzj91E-3-9" value="NomUtilisateur" style="text;html=1;strokeColor=none;fillColor=none;align=center;verticalAlign=middle;whiteSpace=wrap;rounded=0;" vertex="1" parent="1">
          <mxGeometry x="250" y="390" width="40" height="20" as="geometry" />
        </mxCell>
        <mxCell id="7HdCGKZV9hbTOzj91E-3-10" value="PrenomUtilisateur" style="text;html=1;strokeColor=none;fillColor=none;align=center;verticalAlign=middle;whiteSpace=wrap;rounded=0;" vertex="1" parent="1">
          <mxGeometry x="255" y="410" width="40" height="20" as="geometry" />
        </mxCell>
        <mxCell id="7HdCGKZV9hbTOzj91E-3-11" value="EmailUti" style="text;html=1;strokeColor=none;fillColor=none;align=center;verticalAlign=middle;whiteSpace=wrap;rounded=0;" vertex="1" parent="1">
          <mxGeometry x="255" y="430" width="40" height="20" as="geometry" />
        </mxCell>
        <mxCell id="7HdCGKZV9hbTOzj91E-3-12" value="TelUti" style="text;html=1;strokeColor=none;fillColor=none;align=center;verticalAlign=middle;whiteSpace=wrap;rounded=0;" vertex="1" parent="1">
          <mxGeometry x="250" y="450" width="40" height="20" as="geometry" />
        </mxCell>
        <mxCell id="7HdCGKZV9hbTOzj91E-3-13" value="PrenomClient" style="text;html=1;strokeColor=none;fillColor=none;align=center;verticalAlign=middle;whiteSpace=wrap;rounded=0;" vertex="1" parent="1">
          <mxGeometry x="660" y="414" width="40" height="20" as="geometry" />
        </mxCell>
        <mxCell id="7HdCGKZV9hbTOzj91E-3-14" value="EmailClient" style="text;html=1;strokeColor=none;fillColor=none;align=center;verticalAlign=middle;whiteSpace=wrap;rounded=0;" vertex="1" parent="1">
          <mxGeometry x="660" y="452" width="40" height="20" as="geometry" />
        </mxCell>
        <mxCell id="7HdCGKZV9hbTOzj91E-3-15" value="NomClient" style="text;html=1;strokeColor=none;fillColor=none;align=center;verticalAlign=middle;whiteSpace=wrap;rounded=0;" vertex="1" parent="1">
          <mxGeometry x="660" y="398" width="40" height="20" as="geometry" />
        </mxCell>
        <mxCell id="7HdCGKZV9hbTOzj91E-3-16" value="IdAdress" style="text;html=1;strokeColor=none;fillColor=none;align=center;verticalAlign=middle;whiteSpace=wrap;rounded=0;" vertex="1" parent="1">
          <mxGeometry x="660" y="504" width="40" height="20" as="geometry" />
        </mxCell>
        <mxCell id="7HdCGKZV9hbTOzj91E-3-18" value="IdAdress" style="text;html=1;strokeColor=none;fillColor=none;align=center;verticalAlign=middle;whiteSpace=wrap;rounded=0;" vertex="1" parent="1">
          <mxGeometry x="255" y="469" width="40" height="20" as="geometry" />
        </mxCell>
        <mxCell id="7HdCGKZV9hbTOzj91E-3-19" value="" style="rounded=1;whiteSpace=wrap;html=1;" vertex="1" parent="1">
          <mxGeometry x="414" y="550" width="120" height="160" as="geometry" />
        </mxCell>
        <mxCell id="7HdCGKZV9hbTOzj91E-3-17" value="IdAdress" style="text;html=1;strokeColor=none;fillColor=none;align=center;verticalAlign=middle;whiteSpace=wrap;rounded=0;fontStyle=4" vertex="1" parent="1">
          <mxGeometry x="454" y="590" width="40" height="20" as="geometry" />
        </mxCell>
        <mxCell id="7HdCGKZV9hbTOzj91E-3-20" value="ADRESSE" style="text;html=1;strokeColor=none;fillColor=none;align=center;verticalAlign=middle;whiteSpace=wrap;rounded=0;fontStyle=1" vertex="1" parent="1">
          <mxGeometry x="454" y="560" width="40" height="20" as="geometry" />
        </mxCell>
        <mxCell id="7HdCGKZV9hbTOzj91E-3-21" value="NumRueClient" style="text;html=1;strokeColor=none;fillColor=none;align=center;verticalAlign=middle;whiteSpace=wrap;rounded=0;" vertex="1" parent="1">
          <mxGeometry x="660" y="487" width="40" height="20" as="geometry" />
        </mxCell>
        <mxCell id="7HdCGKZV9hbTOzj91E-3-23" value="NomRue" style="text;html=1;strokeColor=none;fillColor=none;align=center;verticalAlign=middle;whiteSpace=wrap;rounded=0;" vertex="1" parent="1">
          <mxGeometry x="454" y="610" width="40" height="20" as="geometry" />
        </mxCell>
        <mxCell id="7HdCGKZV9hbTOzj91E-3-24" value="CodePostal" style="text;html=1;strokeColor=none;fillColor=none;align=center;verticalAlign=middle;whiteSpace=wrap;rounded=0;" vertex="1" parent="1">
          <mxGeometry x="454" y="630" width="40" height="20" as="geometry" />
        </mxCell>
        <mxCell id="7HdCGKZV9hbTOzj91E-3-25" value="NomVille" style="text;html=1;strokeColor=none;fillColor=none;align=center;verticalAlign=middle;whiteSpace=wrap;rounded=0;" vertex="1" parent="1">
          <mxGeometry x="454" y="652" width="40" height="20" as="geometry" />
        </mxCell>
        <mxCell id="7HdCGKZV9hbTOzj91E-3-26" value="" style="endArrow=none;html=1;" edge="1" parent="1" source="7HdCGKZV9hbTOzj91E-3-19" target="PKBHu8Fdax7sOy9F1GHR-4">
          <mxGeometry width="50" height="50" relative="1" as="geometry">
            <mxPoint x="390" y="600" as="sourcePoint" />
            <mxPoint x="440" y="550" as="targetPoint" />
          </mxGeometry>
        </mxCell>
        <mxCell id="7HdCGKZV9hbTOzj91E-3-27" value="" style="endArrow=none;html=1;" edge="1" parent="1" source="7HdCGKZV9hbTOzj91E-3-19" target="PKBHu8Fdax7sOy9F1GHR-3">
          <mxGeometry width="50" height="50" relative="1" as="geometry">
            <mxPoint x="390" y="600" as="sourcePoint" />
            <mxPoint x="440" y="550" as="targetPoint" />
          </mxGeometry>
        </mxCell>
        <mxCell id="7HdCGKZV9hbTOzj91E-3-28" value="TelClient" style="text;html=1;strokeColor=none;fillColor=none;align=center;verticalAlign=middle;whiteSpace=wrap;rounded=0;" vertex="1" parent="1">
          <mxGeometry x="660" y="472" width="40" height="20" as="geometry" />
        </mxCell>
        <mxCell id="7HdCGKZV9hbTOzj91E-3-29" value="DerVisite" style="text;html=1;strokeColor=none;fillColor=none;align=center;verticalAlign=middle;whiteSpace=wrap;rounded=0;" vertex="1" parent="1">
          <mxGeometry x="660" y="601" width="40" height="30" as="geometry" />
        </mxCell>
        <mxCell id="7HdCGKZV9hbTOzj91E-3-30" value="DateCreaCompte Client" style="text;html=1;strokeColor=none;fillColor=none;align=center;verticalAlign=middle;whiteSpace=wrap;rounded=0;" vertex="1" parent="1">
          <mxGeometry x="660" y="531" width="40" height="20" as="geometry" />
        </mxCell>
        <mxCell id="7HdCGKZV9hbTOzj91E-3-32" value="StatutClient" style="text;html=1;strokeColor=none;fillColor=none;align=center;verticalAlign=middle;whiteSpace=wrap;rounded=0;" vertex="1" parent="1">
          <mxGeometry x="660" y="561" width="40" height="20" as="geometry" />
        </mxCell>
        <mxCell id="7HdCGKZV9hbTOzj91E-3-33" value="PointureClient" style="text;html=1;strokeColor=none;fillColor=none;align=center;verticalAlign=middle;whiteSpace=wrap;rounded=0;" vertex="1" parent="1">
          <mxGeometry x="660" y="581" width="40" height="20" as="geometry" />
        </mxCell>
        <mxCell id="7HdCGKZV9hbTOzj91E-3-36" value="SexeClient" style="text;html=1;strokeColor=none;fillColor=none;align=center;verticalAlign=middle;whiteSpace=wrap;rounded=0;" vertex="1" parent="1">
          <mxGeometry x="660" y="432" width="40" height="20" as="geometry" />
        </mxCell>
        <mxCell id="7HdCGKZV9hbTOzj91E-3-37" value="NomProduit" style="text;html=1;strokeColor=none;fillColor=none;align=center;verticalAlign=middle;whiteSpace=wrap;rounded=0;" vertex="1" parent="1">
          <mxGeometry x="285" y="70" width="40" height="20" as="geometry" />
        </mxCell>
        <mxCell id="7HdCGKZV9hbTOzj91E-3-38" value="IdType" style="text;html=1;strokeColor=none;fillColor=none;align=center;verticalAlign=middle;whiteSpace=wrap;rounded=0;" vertex="1" parent="1">
          <mxGeometry x="285" y="90" width="40" height="20" as="geometry" />
        </mxCell>
        <mxCell id="7HdCGKZV9hbTOzj91E-3-39" value="PrixProduit" style="text;html=1;strokeColor=none;fillColor=none;align=center;verticalAlign=middle;whiteSpace=wrap;rounded=0;" vertex="1" parent="1">
          <mxGeometry x="285" y="110" width="40" height="20" as="geometry" />
        </mxCell>
        <mxCell id="7HdCGKZV9hbTOzj91E-3-40" value="" style="rounded=1;whiteSpace=wrap;html=1;" vertex="1" parent="1">
          <mxGeometry x="550" y="130" width="190" height="180" as="geometry" />
        </mxCell>
        <mxCell id="7HdCGKZV9hbTOzj91E-3-41" value="TYPE_PRODUIT" style="text;html=1;strokeColor=none;fillColor=none;align=center;verticalAlign=middle;whiteSpace=wrap;rounded=0;fontStyle=1" vertex="1" parent="1">
          <mxGeometry x="625" y="140" width="40" height="20" as="geometry" />
        </mxCell>
        <mxCell id="7HdCGKZV9hbTOzj91E-3-44" value="IdType" style="text;html=1;strokeColor=none;fillColor=none;align=center;verticalAlign=middle;whiteSpace=wrap;rounded=0;fontStyle=4" vertex="1" parent="1">
          <mxGeometry x="625" y="170" width="40" height="20" as="geometry" />
        </mxCell>
        <mxCell id="7HdCGKZV9hbTOzj91E-3-48" value="" style="rounded=1;whiteSpace=wrap;html=1;" vertex="1" parent="1">
          <mxGeometry x="-140" y="410" width="120" height="60" as="geometry" />
        </mxCell>
        <mxCell id="7HdCGKZV9hbTOzj91E-3-49" value="" style="rounded=1;whiteSpace=wrap;html=1;" vertex="1" parent="1">
          <mxGeometry x="545" y="-90" width="120" height="130" as="geometry" />
        </mxCell>
        <mxCell id="7HdCGKZV9hbTOzj91E-3-50" value="STOCK" style="text;html=1;strokeColor=none;fillColor=none;align=center;verticalAlign=middle;whiteSpace=wrap;rounded=0;fontStyle=1" vertex="1" parent="1">
          <mxGeometry x="585" y="-60" width="40" height="20" as="geometry" />
        </mxCell>
        <mxCell id="7HdCGKZV9hbTOzj91E-3-51" value="QuantitéProduit" style="text;html=1;strokeColor=none;fillColor=none;align=center;verticalAlign=middle;whiteSpace=wrap;rounded=0;" vertex="1" parent="1">
          <mxGeometry x="580" y="-20" width="40" height="20" as="geometry" />
        </mxCell>
        <mxCell id="7HdCGKZV9hbTOzj91E-3-52" value="IdStock" style="text;html=1;strokeColor=none;fillColor=none;align=center;verticalAlign=middle;whiteSpace=wrap;rounded=0;fontStyle=4" vertex="1" parent="1">
          <mxGeometry x="580" y="-40" width="40" height="20" as="geometry" />
        </mxCell>
        <mxCell id="7HdCGKZV9hbTOzj91E-3-53" value="IdStock" style="text;html=1;strokeColor=none;fillColor=none;align=center;verticalAlign=middle;whiteSpace=wrap;rounded=0;" vertex="1" parent="1">
          <mxGeometry x="625" y="190" width="40" height="20" as="geometry" />
        </mxCell>
        <mxCell id="7HdCGKZV9hbTOzj91E-3-55" value="IdStock" style="text;html=1;strokeColor=none;fillColor=none;align=center;verticalAlign=middle;whiteSpace=wrap;rounded=0;" vertex="1" parent="1">
          <mxGeometry x="285" y="130" width="40" height="20" as="geometry" />
        </mxCell>
        <mxCell id="7HdCGKZV9hbTOzj91E-3-56" value="QuantitéType" style="text;html=1;strokeColor=none;fillColor=none;align=center;verticalAlign=middle;whiteSpace=wrap;rounded=0;" vertex="1" parent="1">
          <mxGeometry x="585" width="40" height="20" as="geometry" />
        </mxCell>
        <mxCell id="7HdCGKZV9hbTOzj91E-3-57" value="" style="endArrow=none;html=1;" edge="1" parent="1" source="PKBHu8Fdax7sOy9F1GHR-2" target="7HdCGKZV9hbTOzj91E-3-49">
          <mxGeometry width="50" height="50" relative="1" as="geometry">
            <mxPoint x="440" y="260" as="sourcePoint" />
            <mxPoint x="490" y="210" as="targetPoint" />
          </mxGeometry>
        </mxCell>
        <mxCell id="7HdCGKZV9hbTOzj91E-3-58" value="" style="endArrow=none;html=1;entryX=0.5;entryY=1;entryDx=0;entryDy=0;" edge="1" parent="1" source="7HdCGKZV9hbTOzj91E-3-40" target="7HdCGKZV9hbTOzj91E-3-49">
          <mxGeometry width="50" height="50" relative="1" as="geometry">
            <mxPoint x="440" y="260" as="sourcePoint" />
            <mxPoint x="490" y="210" as="targetPoint" />
          </mxGeometry>
        </mxCell>
        <mxCell id="7HdCGKZV9hbTOzj91E-3-59" value="NomType" style="text;html=1;strokeColor=none;fillColor=none;align=center;verticalAlign=middle;whiteSpace=wrap;rounded=0;" vertex="1" parent="1">
          <mxGeometry x="625" y="210" width="40" height="20" as="geometry" />
        </mxCell>
        <mxCell id="7HdCGKZV9hbTOzj91E-3-60" value="CouleurType" style="text;html=1;strokeColor=none;fillColor=none;align=center;verticalAlign=middle;whiteSpace=wrap;rounded=0;" vertex="1" parent="1">
          <mxGeometry x="625" y="230" width="40" height="20" as="geometry" />
        </mxCell>
        <mxCell id="7HdCGKZV9hbTOzj91E-3-63" value="TailleProduit" style="text;html=1;strokeColor=none;fillColor=none;align=center;verticalAlign=middle;whiteSpace=wrap;rounded=0;" vertex="1" parent="1">
          <mxGeometry x="625" y="250" width="40" height="20" as="geometry" />
        </mxCell>
        <mxCell id="7HdCGKZV9hbTOzj91E-3-64" value="" style="endArrow=none;html=1;entryX=0;entryY=0.5;entryDx=0;entryDy=0;" edge="1" parent="1" source="PKBHu8Fdax7sOy9F1GHR-2" target="7HdCGKZV9hbTOzj91E-3-40">
          <mxGeometry width="50" height="50" relative="1" as="geometry">
            <mxPoint x="440" y="260" as="sourcePoint" />
            <mxPoint x="490" y="210" as="targetPoint" />
          </mxGeometry>
        </mxCell>
        <mxCell id="7HdCGKZV9hbTOzj91E-3-65" value="" style="endArrow=none;html=1;" edge="1" parent="1" source="PKBHu8Fdax7sOy9F1GHR-1" target="7HdCGKZV9hbTOzj91E-3-48">
          <mxGeometry width="50" height="50" relative="1" as="geometry">
            <mxPoint x="630" y="730" as="sourcePoint" />
            <mxPoint x="680" y="680" as="targetPoint" />
          </mxGeometry>
        </mxCell>
        <mxCell id="7HdCGKZV9hbTOzj91E-3-66" value="NomFournisseur" style="text;html=1;strokeColor=none;fillColor=none;align=center;verticalAlign=middle;whiteSpace=wrap;rounded=0;" vertex="1" parent="1">
          <mxGeometry x="25" y="590" width="40" height="20" as="geometry" />
        </mxCell>
        <mxCell id="7HdCGKZV9hbTOzj91E-3-67" value="EmailFournisseur" style="text;html=1;strokeColor=none;fillColor=none;align=center;verticalAlign=middle;whiteSpace=wrap;rounded=0;" vertex="1" parent="1">
          <mxGeometry x="25" y="610" width="40" height="20" as="geometry" />
        </mxCell>
        <mxCell id="7HdCGKZV9hbTOzj91E-3-68" value="TelFournisseur" style="text;html=1;strokeColor=none;fillColor=none;align=center;verticalAlign=middle;whiteSpace=wrap;rounded=0;" vertex="1" parent="1">
          <mxGeometry x="25" y="630" width="40" height="20" as="geometry" />
        </mxCell>
        <mxCell id="7HdCGKZV9hbTOzj91E-3-71" value="NumRueUti" style="text;html=1;strokeColor=none;fillColor=none;align=center;verticalAlign=middle;whiteSpace=wrap;rounded=0;" vertex="1" parent="1">
          <mxGeometry x="250" y="492" width="40" height="20" as="geometry" />
        </mxCell>
        <mxCell id="7HdCGKZV9hbTOzj91E-3-72" value="IdAdress" style="text;html=1;strokeColor=none;fillColor=none;align=center;verticalAlign=middle;whiteSpace=wrap;rounded=0;" vertex="1" parent="1">
          <mxGeometry x="25" y="650" width="40" height="20" as="geometry" />
        </mxCell>
        <mxCell id="7HdCGKZV9hbTOzj91E-3-73" value="NumRueFour" style="text;html=1;strokeColor=none;fillColor=none;align=center;verticalAlign=middle;whiteSpace=wrap;rounded=0;" vertex="1" parent="1">
          <mxGeometry x="20" y="670" width="40" height="20" as="geometry" />
        </mxCell>
        <mxCell id="7HdCGKZV9hbTOzj91E-3-74" value="" style="endArrow=none;html=1;entryX=0;entryY=0.5;entryDx=0;entryDy=0;" edge="1" parent="1" source="PKBHu8Fdax7sOy9F1GHR-1" target="7HdCGKZV9hbTOzj91E-3-19">
          <mxGeometry width="50" height="50" relative="1" as="geometry">
            <mxPoint x="380" y="630" as="sourcePoint" />
            <mxPoint x="430" y="580" as="targetPoint" />
          </mxGeometry>
        </mxCell>
        <mxCell id="7HdCGKZV9hbTOzj91E-3-75" value="StatutFour" style="text;html=1;strokeColor=none;fillColor=none;align=center;verticalAlign=middle;whiteSpace=wrap;rounded=0;" vertex="1" parent="1">
          <mxGeometry x="25" y="690" width="40" height="20" as="geometry" />
        </mxCell>
      </root>
    </mxGraphModel>
  </diagram>
</mxfile>
